<?xml version="1.0" standalone="no"?><!DOCTYPE svg PUBLIC "-//W3C//DTD SVG 1.1//EN" "http://www.w3.org/Graphics/SVG/1.1/DTD/svg11.dtd"><svg t="1591855351395" class="icon" viewBox="0 0 1024 1024" version="1.1" xmlns="http://www.w3.org/2000/svg" p-id="5033" xmlns:xlink="http://www.w3.org/1999/xlink" width="200" height="200"><defs><style type="text/css"></style></defs><path d="M153.21 416.93L794.1 223.41l130.15 193.52z" fill="#FFA621" p-id="5034"></path><path d="M153.21 416.93h771.04v473.05H153.21z" fill="#F8E868" p-id="5035"></path><path d="M153.21 416.93h771.04v114.24H153.21zM155.17 701.46c-0.36 0-0.7-0.04-1.02-0.09h-0.03a4.28 4.28 0 0 1-0.9-0.27v188.89h771.04V701.46H155.17z" fill="#FFA621" p-id="5036"></path><path d="M880.91 412.93H109.87c-3.47 0-6.42-2.54-6.92-5.98a6.995 6.995 0 0 1 4.9-7.72l640.89-193.52c2.95-0.89 6.12 0.25 7.83 2.79l130.15 193.52a7.004 7.004 0 0 1-5.81 10.91z m-723.64-14h710.49L747.84 220.61 157.27 398.93zM109.87 660.46c-3.87 0-7-3.13-7-7v-66.72c0-3.87 3.13-7 7-7s7 3.13 7 7v66.72c0 3.86-3.13 7-7 7z" fill="#7C4924" p-id="5037"></path><path d="M880.91 885.98H109.87c-3.87 0-7-3.13-7-7V713c0-3.87 3.13-7 7-7s7 3.13 7 7v158.99h757.04V412.93H116.87v101.04c0 3.87-3.13 7-7 7s-7-3.13-7-7V405.93c0-3.87 3.13-7 7-7h771.04c3.87 0 7 3.13 7 7v473.05c0 3.87-3.13 7-7 7z" fill="#7C4924" p-id="5038"></path><path d="M407 250.33a121.19 110.53 0 1 0 242.38 0 121.19 110.53 0 1 0-242.38 0Z" fill="#FFA621" p-id="5039"></path><path d="M528.19 367.87C457.5 367.87 400 315.14 400 250.33S457.5 132.8 528.19 132.8s128.19 52.73 128.19 117.53-57.5 117.54-128.19 117.54z m0-221.07C465.22 146.8 414 193.24 414 250.33s51.23 103.53 114.19 103.53 114.19-46.45 114.19-103.53S591.16 146.8 528.19 146.8z" fill="#7C4924" p-id="5040"></path><path d="M407 273.9a121.19 110.53 0 1 0 242.38 0 121.19 110.53 0 1 0-242.38 0Z" fill="#F8E868" p-id="5041"></path><path d="M477.14 381.18c-0.91 0-1.84-0.18-2.73-0.56-21.13-8.96-39.23-23.06-52.35-40.76a6.996 6.996 0 0 1 1.46-9.79 6.996 6.996 0 0 1 9.79 1.46c11.63 15.7 27.73 28.22 46.56 36.2a7 7 0 0 1 3.71 9.18c-1.12 2.67-3.71 4.27-6.44 4.27zM528.19 391.43c-3.87 0-7-3.13-7-7s3.13-7 7-7c19.65 0 39.03-4.6 56.03-13.3 3.44-1.76 7.66-0.4 9.42 3.04 1.76 3.44 0.4 7.66-3.04 9.42-18.97 9.71-40.55 14.84-62.41 14.84z" fill="#7C4924" p-id="5042"></path><path d="M662.42 320.17c0-39.58 32.09-71.67 71.67-71.67s71.67 32.09 71.67 71.67-32.09 71.67-71.67 71.67-71.67-32.08-71.67-71.67" fill="#FF686E" p-id="5043"></path><path d="M723.78 273.14c20.08-43.7 58.17-77.92 104.03-92.63 7.32-2.35 4.19-13.94-3.19-11.57-48.65 15.6-89.85 51.66-111.21 98.15-3.19 6.96 7.15 13.06 10.37 6.05zM407 538.17H243.45c-3.87 0-7-3.13-7-7s3.13-7 7-7H407c3.87 0 7 3.13 7 7s-3.14 7-7 7zM880.91 537.32h-386.6c-3.87 0-7-3.13-7-7s3.13-7 7-7h386.6c3.87 0 7 3.13 7 7s-3.13 7-7 7zM466.29 708.46H325.22c-3.87 0-7-3.13-7-7s3.13-7 7-7h141.07c3.87 0 7 3.13 7 7s-3.13 7-7 7zM843.56 708.46H577.71c-3.87 0-7-3.13-7-7s3.13-7 7-7h265.85c3.87 0 7 3.13 7 7s-3.14 7-7 7z" fill="#7C4924" p-id="5044"></path><path d="M179.26 546.84v88.62c0 9.65 15 9.67 15 0v-88.62c0-9.65-15-9.67-15 0zM179.26 671.95v10.43c0 3.92 3.45 7.68 7.5 7.5 4.06-0.18 7.5-3.3 7.5-7.5v-10.43c0-3.92-3.45-7.68-7.5-7.5-4.06 0.18-7.5 3.29-7.5 7.5z" fill="#FFFFFF" p-id="5045"></path></svg>