<?xml version="1.0" standalone="no"?><!DOCTYPE svg PUBLIC "-//W3C//DTD SVG 1.1//EN" "http://www.w3.org/Graphics/SVG/1.1/DTD/svg11.dtd"><svg t="1591856319722" class="icon" viewBox="0 0 1024 1024" version="1.1" xmlns="http://www.w3.org/2000/svg" p-id="5171" xmlns:xlink="http://www.w3.org/1999/xlink" width="200" height="200"><defs><style type="text/css"></style></defs><path d="M541.53 511.39m-384.5 0a384.5 384.5 0 1 0 769 0 384.5 384.5 0 1 0-769 0Z" fill="#F8E868" p-id="5172"></path><path d="M296.65 219.56c-0.11-1.44-0.25-2.87-0.37-4.3a384.958 384.958 0 0 0-32.85 30.61c11.37-3.74 22.82-7.26 34.33-10.58-0.34-5.25-0.69-10.49-1.11-15.73zM680.29 197.15c32.52 2.23 64.99 5.78 97.24 10.68a383.82 383.82 0 0 0-111.76-60.4c4.9 16.56 9.74 33.13 14.52 49.72zM612.21 133.39c-22.91-4.26-46.53-6.5-70.68-6.5-16.98 0-33.7 1.11-50.11 3.25 3.16 22.77 6.2 45.56 9.16 68.36 43.16-3.68 86.53-4.9 129.75-3.74-5.95-20.48-11.99-40.94-18.12-61.37zM449.3 168.6c-0.11-0.84-0.24-1.76-0.31-2.32-0.14-1.01-0.27-2.01-0.41-3.02-0.33-2.46-0.67-4.93-1-7.39-0.67-4.92-1.35-9.84-2.03-14.76-0.1-0.69-0.2-1.38-0.29-2.06a382.368 382.368 0 0 0-104.78 44.52c1.65 13.14 2.92 26.32 3.91 39.54 36.1-8.43 72.67-14.96 109.5-19.66-1.51-11.61-3.03-23.23-4.59-34.85zM300.99 318.33c-0.29-11.49-0.6-22.99-0.97-34.48-9.1 2.71-18.16 5.55-27.17 8.53a918.008 918.008 0 0 0-33.4 11.77c-5.77 2.16-11.52 4.38-17.24 6.67-2.6 1.04-5.19 2.08-7.78 3.14-0.67 0.27-2.45 1.02-3.88 1.61a382.425 382.425 0 0 0-36.63 82.78c42.5-10.58 85.35-19.59 128.58-26.58-0.65-17.8-1.06-35.63-1.51-53.44zM465.57 296.21c-1.89-15.33-3.8-30.66-5.73-45.99-0.62 0.08-1.24 0.15-1.86 0.23-1.79 0.23-10.84 1.27-3.96 0.5-2.85 0.32-5.69 0.78-8.52 1.19a1048.36 1048.36 0 0 0-34.78 5.59c-21.38 3.8-42.64 8.27-63.73 13.42 0.83 22.44 1.26 44.9 1.85 67.25 0.23 8.88 0.48 17.75 0.78 26.63 27.75-3.46 55.63-5.94 83.57-7.28 13.31-0.64 26.59-0.86 39.87-0.89-2.52-20.22-5-40.43-7.49-60.65zM711 307.4c4.48 16.69 8.88 33.41 13.22 50.14 41.18 0.7 82.35 2.56 123.29 7.09 17.52 1.94 35.03 4.29 52.43 7.26-14.91-38.29-35.78-73.59-61.47-104.78-26.15-5.71-52.51-10.47-79.01-14.31-3.38-0.49-6.77-1.03-10.17-1.43 6.94 0.8-2.3-0.29-3.9-0.49-5.67-0.72-11.35-1.39-17.04-2.03-11.42-1.27-22.86-2.37-34.31-3.31 5.75 20.6 11.41 41.21 16.96 61.86zM657.06 289.4c-4.29-15.64-8.65-31.25-13.06-46.85-7.42-0.29-14.85-0.51-22.27-0.65-38.42-0.75-76.87 0.41-115.17 3.53 3.25 25.84 6.44 51.68 9.62 77.53l4.23 34.4c1.59 0.03 3.18 0.05 4.77 0.08 50.01 0.78 100.02-0.23 150.03-0.24-5.92-22.65-11.96-45.25-18.15-67.8zM323.24 561.96c-6.05 0.9-12.1 1.84-18.14 2.86-32.49 5.45-64.2 13.22-95.98 21.79-13.89 3.74-27.78 9.1-41.9 13.13 7.96 33.87 20.42 66.01 36.68 95.77 6.6-1.31 13.12-2.95 19.58-4.87 18.14-5.37 35.67-12.54 53.62-18.48 18.42-6.1 37.49-10.73 56.39-15.06 2.48-0.57 4.97-1.12 7.46-1.67-6.53-31.04-12.49-62.19-17.71-93.47zM499.33 558.81c-0.57-4.04-1.12-8.08-1.69-12.11-0.44 0.02-0.87 0.05-1.31 0.07-32.9 1.88-65.81 3.82-98.64 6.68-9.23 0.81-18.46 1.69-27.68 2.66 5.15 30.26 10.99 60.39 17.36 90.41 23.25-3.89 46.64-7.05 70.04-9.84 17.52-2.09 35.07-4.07 52.65-5.89-3.76-23.97-7.32-47.97-10.73-71.98zM720.71 544.4c-8.5-0.45-17-0.82-25.5-1.12-50.16-1.76-100.37-1.03-150.51 1.08 1.56 10.99 3.14 21.97 4.77 32.94 2.42 16.36 4.92 32.7 7.51 49.04 39.6-3.4 79.28-5.81 118.95-6.74 20.3-0.47 40.6-0.58 60.91-0.35-5.18-25-10.56-49.94-16.13-74.85zM882.02 563.89c-14.27-2.86-28.59-5.24-42.96-7.52-4.17-0.66-8.35-1.3-12.53-1.91-1.93-0.28-3.86-0.56-5.79-0.83-0.72-0.1-4.59-0.63-4.45-0.61-0.39-0.05-0.72-0.09-0.84-0.11-0.97-0.13-1.93-0.25-2.9-0.37-2.25-0.29-4.51-0.57-6.77-0.84a1156.956 1156.956 0 0 0-35.86-3.79c5.31 24.16 10.45 48.35 15.38 72.59 34.48 1.36 68.92 3.74 103.25 7.16 6.31 0.63 12.62 1.3 18.93 2a381.446 381.446 0 0 0 13.75-57.43c-13.08-2.88-26.15-5.73-39.21-8.34zM361.57 745.72c-3.58-14.68-7.07-29.39-10.44-44.13-11.82 2.63-23.58 5.52-35.26 8.73-18.05 4.96-35.57 10.69-53.19 17.03-10.56 3.8-21.18 7.45-31.99 10.39a386.53 386.53 0 0 0 81.95 82.62c21.44-4.29 42.91-8.45 64.4-12.46-5.28-20.71-10.41-41.45-15.47-62.18zM517.67 677.63c-9.25 0.88-18.5 1.8-27.75 2.76-10.17 1.06-20.33 2.18-30.48 3.38a1727.568 1727.568 0 0 0-22.35 2.79c-0.61 0.08-1.06 0.14-1.4 0.18l-1.44 0.21a1229.53 1229.53 0 0 0-36.68 5.61c4.96 21.55 10.16 43.05 15.55 64.5 3.55 14.13 7.12 28.28 10.74 42.43 14.59-2.53 29.19-4.97 43.81-7.29 23.04-3.66 46.14-7.07 69.27-10.15-7.01-34.7-13.38-69.52-19.27-104.42zM812.37 765.67c5.66 0.17 11.32 0.37 16.98 0.62 24.14-27.24 44.48-57.92 60.17-91.23-9.94-1-19.89-1.91-29.85-2.73-21.61-1.78-43.25-3.16-64.91-4.13 6.24 32.42 12.11 64.92 17.61 97.47zM746.37 666.71c-32.06-0.55-64.14-0.23-96.17 1.01-28.56 1.1-57.04 3.15-85.5 5.61 5.88 34.41 12.26 68.74 19.26 102.94 23.2-2.6 46.44-4.82 69.72-6.59 36.86-2.8 73.83-4.44 110.8-4.62-5.64-32.86-11.7-65.64-18.11-98.35zM389.05 853.66c-5.55 1.04-11.1 2.07-16.64 3.13 6.56 3.22 13.22 6.25 19.98 9.1-1.12-4.08-2.23-8.15-3.34-12.23zM772.34 812.37c-47.11-0.03-94.22 2.33-141.14 6.48-12.46 1.1-24.91 2.33-37.34 3.68 0.69 3.09 1.38 6.19 2.08 9.28 4.41 19.39 9.06 38.73 13.97 58.01 60.56-10.88 116.2-35.94 163.35-71.62-0.3-1.95-0.61-3.89-0.92-5.83zM546.68 828.14c-1.8 0.23-3.6 0.46-5.4 0.7-0.62 0.08-1.24 0.16-1.86 0.25-0.24 0.03-0.52 0.07-0.84 0.11-1.8 0.25-3.59 0.49-5.39 0.74-3.59 0.5-7.19 1-10.78 1.52-7.19 1.03-14.37 2.08-21.54 3.17-14.96 2.26-29.9 4.65-44.82 7.14-6.74 1.13-13.48 2.28-20.22 3.45 3.5 12.99 7.1 25.95 10.82 38.87 30.34 7.7 62.12 11.81 94.86 11.81 7.03 0 14.01-0.21 20.95-0.58a2459.96 2459.96 0 0 1-15.78-67.18zM478.88 403.91c-21.85 0.07-43.71 0.84-65.51 2.3-15.02 1-30.02 2.32-44.98 3.94-5.51 0.6-11.01 1.25-16.5 1.92 0.52 7.67 1.13 15.33 1.86 22.99 1.74 18.14 3.79 36.26 6.13 54.33 0.2 1.55 0.41 3.1 0.61 4.65a1632.422 1632.422 0 0 0 2.2 15.6c42.71-4.68 85.61-7.62 128.53-9.97-4.27-31.9-8.35-63.82-12.34-95.76zM687.35 404.33c-53.69-0.26-107.43 0.79-161.08 0.16 1.96 15.72 3.94 31.43 5.96 47.14 1.38 10.74 2.78 21.48 4.19 32.21 0.59 4.49 1.19 8.98 1.79 13.47 57.15-2.53 114.42-3.34 171.58-0.77-7.2-30.8-14.7-61.54-22.44-92.21zM915.78 422.93c-1.93-0.41-3.86-0.82-5.79-1.22-14.54-2.97-29.18-5.44-43.87-7.5-0.52-0.07-1.04-0.14-1.56-0.22-0.13-0.02-0.26-0.03-0.41-0.05l-3.32-0.42c-3.88-0.49-7.77-0.95-11.65-1.39-7.54-0.85-15.09-1.6-22.65-2.27-30.03-2.67-60.11-4.11-90.22-4.85 7.87 31.48 15.45 63.03 22.74 94.65 51.41 4.22 102.57 11.51 153.04 22.21 4.57 0.97 9.14 1.95 13.71 2.94 0.15-4.46 0.24-8.93 0.24-13.42-0.01-30.44-3.57-60.05-10.26-88.46zM305.03 418.94c-48.2 8.08-95.92 18.87-143.17 31.36a386.9 386.9 0 0 0-4.84 61.09c0 13.89 0.74 27.6 2.18 41.1 7.76-2.33 15.44-4.93 23.16-7.36 13.7-4.32 27.61-8.09 41.53-11.63 30.36-7.72 61.19-13.51 92.18-17.98-4.6-32.06-8.62-64.28-11.04-96.58z" fill="#FFA621" p-id="5173"></path><path d="M110.95 568.96c-3.46 0-6.47-2.57-6.93-6.09a396.084 396.084 0 0 1-3.36-51.48c0-8.67 0.29-17.45 0.85-26.08a6.997 6.997 0 0 1 7.44-6.53c3.86 0.25 6.78 3.59 6.53 7.44a382.026 382.026 0 0 0 2.41 74.81c0.5 3.83-2.2 7.35-6.03 7.85-0.3 0.06-0.61 0.08-0.91 0.08zM492.17 902.89c-84.25 0-164.51-26.35-232.11-76.2a393.204 393.204 0 0 1-84.83-85.43c-24.05-33.1-42.66-69.54-55.31-108.28-1.2-3.68 0.81-7.63 4.48-8.83 3.68-1.2 7.63 0.81 8.83 4.48 12.19 37.35 30.14 72.48 53.33 104.4a379.382 379.382 0 0 0 81.81 82.39c65.18 48.06 142.57 73.46 223.8 73.46 50.97 0 100.4-9.98 146.94-29.66 44.95-19.01 85.32-46.23 120-80.9 34.67-34.67 61.89-75.04 80.9-120 19.68-46.54 29.66-95.97 29.66-146.94s-9.98-100.4-29.66-146.94c-19.01-44.95-46.23-85.32-80.9-120-34.67-34.67-75.04-61.89-120-80.9-46.54-19.68-95.97-29.66-146.94-29.66-79.3 0-155.18 24.31-219.44 70.3-62.9 45.01-109.91 107.1-135.94 179.56-1.31 3.64-5.32 5.53-8.95 4.22-3.64-1.31-5.53-5.32-4.22-8.95 13.43-37.39 32.48-72.46 56.61-104.23a392.947 392.947 0 0 1 84.35-81.98c66.65-47.7 145.35-72.91 227.59-72.91 52.85 0 104.12 10.35 152.39 30.77 46.62 19.72 88.49 47.95 124.44 83.9s64.18 77.82 83.9 124.44c20.42 48.27 30.77 99.54 30.77 152.39s-10.35 104.12-30.77 152.39c-19.72 46.62-47.95 88.49-83.9 124.44s-77.82 64.18-124.44 83.9c-48.27 20.42-99.55 30.77-152.39 30.77z" fill="#7C4924" p-id="5174"></path></svg>