<?xml version="1.0" standalone="no"?><!DOCTYPE svg PUBLIC "-//W3C//DTD SVG 1.1//EN" "http://www.w3.org/Graphics/SVG/1.1/DTD/svg11.dtd"><svg t="1591856345316" class="icon" viewBox="0 0 1024 1024" version="1.1" xmlns="http://www.w3.org/2000/svg" p-id="5604" xmlns:xlink="http://www.w3.org/1999/xlink" width="200" height="200"><defs><style type="text/css"></style></defs><path d="M491.34 901.32c88.86-58.64 164.87-135.33 222.62-224.8 36.59-56.69 65.79-118.2 86.08-182.56 19.93-63.2 23.29-109 4.68-172.56-41.76-142.69-219.7-161.4-328.59-83.25-91.87 65.94-137.04 181.16-148.77 293.64-5.89 56.48-4.62 113.76-14.87 169.61-8.27 45.03-28.18 84.11-47.34 125.22-28.39 60.91-5.48 107 60.74 117.87 58.88 9.68 116.7-11 165.45-43.17z" fill="#F8E868" p-id="5605"></path><path d="M276.09 542.5c-2.81 39.67-3.58 79.56-8.87 119.02-4.99 37.25-16.48 71.9-31.93 106.05-12.52 27.67-29.53 55.25-30.92 86.37-1 22.46 7.66 44.36 25.25 58.69 22.27 18.15 52.43 24 80.5 24.52 35.35 0.65 70.09-8.69 101.96-23.52 31.16-14.5 59.52-34.75 86.66-55.65 26.82-20.65 52.33-42.94 76.25-66.88 48.53-48.57 90.62-103.66 124.7-163.27 18.24-31.91 34.15-65.14 47.67-99.33 13.38-33.84 25.47-69 31.26-105.03 5.49-34.2 3.85-68.38-4.12-102.07-6.31-26.67-15.83-52.44-31.94-74.82-27.09-37.64-68.11-62.34-113.13-72.26-45.95-10.13-94.96-6.08-139.09 9.96-54.99 20-100.21 59.1-133.76 106.54-9.37 13.24-17.76 27.14-25.34 41.47-4.21 7.96 7.87 15.04 12.09 7.07 27.78-52.54 68.22-100.38 121.34-128.51 39.72-21.03 85.51-30.63 130.32-27.46 42.72 3.02 85.23 18.74 116.5 48.6 16.24 15.51 29.08 34.39 37.75 55.1 12.06 28.79 18.43 61.38 18.83 92.54 0.45 34.27-7.6 67.64-18.05 100.07-10.81 33.56-24.05 66.3-39.55 97.95-29.6 60.43-67.16 116.94-111.58 167.49-43.13 49.1-92.5 92.69-146.69 129.23-53.32 35.94-121.78 62.64-186.18 41.97-19.73-6.33-38.27-19.09-44.84-39.6-7.53-23.51 0.82-47.75 10.84-69.11 14.96-31.88 30.52-63.79 39.96-97.85 10.02-36.16 12.59-74.25 14.8-111.55 1.1-18.58 2-37.16 3.32-55.73 0.62-8.99-13.38-8.95-14.01 0z" fill="#7C4924" p-id="5606"></path><path d="M302.59 400.19c-6.98 21.23-12.51 42.87-16.77 64.81-1.71 8.8 11.78 12.57 13.5 3.72 4.25-21.93 9.79-43.58 16.77-64.81 2.82-8.58-10.69-12.26-13.5-3.72zM705.02 208.05c12.96-27.18 18.8-57.21 16.35-87.27-0.73-8.92-14.73-9-14 0 2.24 27.54-2.53 55.22-14.44 80.2-3.85 8.1 8.21 15.21 12.09 7.07z" fill="#7C4924" p-id="5607"></path><path d="M454.53 100.36s64.1-21.24 124.46 1.74 94.12 81.46 94.12 81.46-64.1 21.24-124.46-1.74-94.12-81.46-94.12-81.46z" fill="#8EBD62" p-id="5608"></path><path d="M484.27 94.62a6.99 6.99 0 0 1-6.64-4.8 7 7 0 0 1 4.44-8.85c1.53-0.51 37.94-12.35 82.35-8.55 3.85 0.33 6.71 3.72 6.38 7.57-0.33 3.85-3.72 6.71-7.57 6.38-41.58-3.56-76.41 7.78-76.75 7.89-0.74 0.24-1.48 0.36-2.21 0.36z" fill="#7C4924" p-id="5609"></path><path d="M578.38 176.08c-0.83 0-1.67-0.15-2.49-0.46-61.97-23.59-96.26-82.03-97.69-84.51-1.93-3.35-0.79-7.63 2.56-9.56 3.35-1.93 7.63-0.79 9.56 2.56 0.32 0.56 33.33 56.64 90.54 78.42 3.61 1.38 5.43 5.42 4.05 9.03a6.972 6.972 0 0 1-6.53 4.52zM702.85 177.82c-2.42 0-4.77-1.26-6.07-3.5-0.25-0.43-25.55-43.5-70.13-68.78a7.009 7.009 0 0 1-2.64-9.54 7.009 7.009 0 0 1 9.54-2.64c48 27.21 74.26 72.06 75.35 73.96 1.93 3.35 0.79 7.63-2.56 9.56-1.1 0.64-2.3 0.94-3.49 0.94zM608.73 96.36c-0.83 0-1.67-0.15-2.49-0.46-6.88-2.62-14.18-4.76-21.7-6.38a7 7 0 0 1-5.38-8.31c0.81-3.78 4.53-6.18 8.31-5.38 8.21 1.76 16.2 4.11 23.74 6.98 3.61 1.38 5.43 5.42 4.05 9.03a6.972 6.972 0 0 1-6.53 4.52z" fill="#7C4924" p-id="5610"></path><path d="M410.05 369.31c-31.48 52.37-51.02 111.17-57.52 171.91-0.82 7.67 11.19 7.61 12 0 6.27-58.57 25.55-115.39 55.89-165.85 3.98-6.64-6.39-12.68-10.37-6.06z" fill="#FFFFFF" p-id="5611"></path><path d="M347.91 574.37c-0.79 9.76-1.57 19.53-2.36 29.29-0.62 7.7 11.38 7.66 12 0 0.79-9.76 1.57-19.53 2.36-29.29 0.62-7.7-11.38-7.66-12 0z" fill="#FFFFFF" p-id="5612"></path></svg>