<?xml version="1.0" standalone="no"?><!DOCTYPE svg PUBLIC "-//W3C//DTD SVG 1.1//EN" "http://www.w3.org/Graphics/SVG/1.1/DTD/svg11.dtd"><svg t="1591856334629" class="icon" viewBox="0 0 1024 1024" version="1.1" xmlns="http://www.w3.org/2000/svg" p-id="5465" xmlns:xlink="http://www.w3.org/1999/xlink" width="200" height="200"><defs><style type="text/css"></style></defs><path d="M674.16 456.48l-44.94-81.9c-3.73-6.8-6.11-14.19-6.99-21.77L591.17 87.7H465.54l-31.06 265.12c-0.89 7.57-3.26 14.96-6.99 21.77l-44.94 81.9c-4.84 8.83-7.53 18.65-7.84 28.65l-12.44 411.94c-0.98 32.44 22.78 59.02 53.07 59.02H641.37c30.29 0 54.05-26.58 53.07-59.02L682 485.13c-0.3-10-2.99-19.82-7.84-28.65z" fill="#F8E868" p-id="5466"></path><path d="M617.91 963.1H391.89c-15.77 0-30.62-6.36-41.83-17.91-12.14-12.51-18.79-30.12-18.24-48.32l12.44-411.94c0.33-11.05 3.34-22.05 8.7-31.81l44.94-81.9c3.31-6.04 5.39-12.5 6.18-19.21l2.87-24.27c0.45-3.84 3.93-6.59 7.77-6.13 3.84 0.45 6.58 3.93 6.13 7.77l-2.87 24.26c-1 8.51-3.62 16.69-7.81 24.31l-44.94 81.9c-4.3 7.83-6.71 16.65-6.98 25.5l-12.44 411.94c-0.44 14.43 4.77 28.34 14.29 38.15 8.54 8.81 19.83 13.66 31.78 13.66h226.03c11.95 0 23.24-4.85 31.78-13.66 9.52-9.81 14.73-23.71 14.29-38.15l-12.44-411.94c-0.27-8.85-2.68-17.67-6.98-25.5l-44.94-81.9c-4.18-7.63-6.81-15.81-7.81-24.32L563.04 108a7.004 7.004 0 0 1 6.14-7.77c3.84-0.45 7.32 2.3 7.77 6.14L605.73 352c0.79 6.71 2.86 13.18 6.18 19.21l44.94 81.9c5.36 9.76 8.36 20.76 8.7 31.81l12.44 411.94c0.55 18.2-6.1 35.81-18.24 48.32-11.21 11.56-26.07 17.92-41.84 17.92zM418.85 293.65c-0.27 0-0.55-0.02-0.83-0.05-3.84-0.45-6.58-3.93-6.13-7.77l5.33-45.14c0.45-3.84 3.93-6.59 7.77-6.13 3.84 0.45 6.58 3.93 6.13 7.77l-5.33 45.14a6.998 6.998 0 0 1-6.94 6.18zM428.99 207.8c-0.27 0-0.55-0.02-0.83-0.05-3.84-0.45-6.58-3.93-6.13-7.77l10.82-91.6c0.45-3.84 3.93-6.59 7.77-6.13 3.84 0.45 6.58 3.93 6.13 7.77l-10.82 91.6a6.998 6.998 0 0 1-6.94 6.18z" fill="#7C4924" p-id="5467"></path><path d="M592.73 309.09h-0.04c-11.23-0.07-22.45-0.13-33.68-0.19-26.75-0.15-54.41-0.3-81.62-0.57a6.995 6.995 0 0 1-6.93-7.07 7.006 7.006 0 0 1 7-6.93h0.07c27.18 0.27 54.82 0.42 81.56 0.57 8.59 0.05 17.18 0.09 25.77 0.15l-21.91-187.04a7.004 7.004 0 0 1 6.14-7.77c3.84-0.45 7.32 2.3 7.77 6.14l22.83 194.9c0.23 1.99-0.4 3.99-1.74 5.48a7.026 7.026 0 0 1-5.22 2.33z" fill="#7C4924" p-id="5468"></path><path d="M605.93 108.71c0.33-1.88 0.51-3.81 0.51-5.77 0-19.94-17.78-36.26-39.51-36.26h-84.64c-21.73 0-39.51 16.32-39.51 36.26 0 1.96 0.18 3.89 0.51 5.77h162.64z" fill="#FFA621" p-id="5469"></path><path d="M586.22 115.71H423.58c-3.4 0-6.3-2.44-6.89-5.78-0.41-2.32-0.62-4.67-0.62-6.98 0-23.85 20.86-43.26 46.51-43.26h84.64c25.65 0 46.51 19.4 46.51 43.26 0 2.32-0.21 4.67-0.62 6.98a6.987 6.987 0 0 1-6.89 5.78z m-156.12-14h149.6c-0.72-15.56-15.01-28.02-32.48-28.02h-84.64c-17.47 0-31.77 12.46-32.48 28.02z" fill="#7C4924" p-id="5470"></path><path d="M408.49 615.05a119.87 155.99 0 1 0 239.74 0 119.87 155.99 0 1 0-239.74 0Z" fill="#FF686E" p-id="5471"></path><path d="M387.89 622.05c-3.87 0-7-3.13-7-7 0-15.52 1.69-30.87 5.03-45.63a6.99 6.99 0 0 1 8.37-5.28c3.77 0.85 6.14 4.6 5.29 8.37-3.11 13.75-4.68 28.06-4.68 42.55a7.008 7.008 0 0 1-7.01 6.99z" fill="#7C4924" p-id="5472"></path><path d="M507.76 778.04c-28.3 0-55.05-11.66-77.37-33.73-21.24-21-37.04-50.71-44.48-83.66a6.997 6.997 0 0 1 5.29-8.37 7.004 7.004 0 0 1 8.37 5.29c6.86 30.37 21.3 57.64 40.67 76.79 19.64 19.42 42.99 29.68 67.53 29.68 62.24 0 112.87-66.83 112.87-148.99S570 466.07 507.76 466.07c-38.55 0-74.08 25.66-95.02 68.63-1.69 3.48-5.88 4.92-9.36 3.23-3.48-1.69-4.92-5.88-3.23-9.36 23.34-47.9 63.57-76.5 107.6-76.5 34.24 0 66.32 17.2 90.31 48.42 23.58 30.68 36.56 71.36 36.56 114.56s-12.98 83.89-36.56 114.56c-23.98 31.23-56.05 48.43-90.3 48.43z" fill="#7C4924" p-id="5473"></path><path d="M415.28 808.51h226.15v68.68H415.28z" fill="#FFA621" p-id="5474"></path><path d="M519.04 884.19h-33.23c-3.87 0-7-3.13-7-7s3.13-7 7-7h33.23c3.87 0 7 3.13 7 7s-3.14 7-7 7z" fill="#7C4924" p-id="5475"></path><path d="M620.84 884.19h-62.71c-3.87 0-7-3.13-7-7s3.13-7 7-7h55.71v-54.68H401.69v54.68h43.07c3.87 0 7 3.13 7 7s-3.13 7-7 7h-50.07c-3.87 0-7-3.13-7-7v-68.68c0-3.87 3.13-7 7-7h226.15c3.87 0 7 3.13 7 7v68.68c0 3.86-3.13 7-7 7z" fill="#7C4924" p-id="5476"></path></svg>