<?xml version="1.0" standalone="no"?><!DOCTYPE svg PUBLIC "-//W3C//DTD SVG 1.1//EN" "http://www.w3.org/Graphics/SVG/1.1/DTD/svg11.dtd"><svg t="1591942407503" class="icon" viewBox="0 0 1024 1024" version="1.1" xmlns="http://www.w3.org/2000/svg" p-id="793" xmlns:xlink="http://www.w3.org/1999/xlink" width="200" height="200"><defs><style type="text/css"></style></defs><path d="M584.362667 512l361.386666-361.301333a17.066667 17.066667 0 0 0 0-24.149334l-48.298666-48.298666a17.066667 17.066667 0 0 0-24.149334 0L512 439.637333 150.698667 78.250667a17.066667 17.066667 0 0 0-24.149334 0l-48.298666 48.298666a17.066667 17.066667 0 0 0 0 24.149334L439.637333 512 78.250667 873.301333a17.066667 17.066667 0 0 0 0 24.149334l48.298666 48.298666a17.066667 17.066667 0 0 0 24.149334 0L512 584.362667l361.301333 361.386666a17.066667 17.066667 0 0 0 24.149334 0l48.298666-48.298666a17.066667 17.066667 0 0 0 0-24.149334z" fill="#6B7C99" p-id="794"></path></svg>