<?xml version="1.0" standalone="no"?><!DOCTYPE svg PUBLIC "-//W3C//DTD SVG 1.1//EN" "http://www.w3.org/Graphics/SVG/1.1/DTD/svg11.dtd"><svg t="1591780925169" class="icon" viewBox="0 0 1024 1024" version="1.1" xmlns="http://www.w3.org/2000/svg" p-id="1493" xmlns:xlink="http://www.w3.org/1999/xlink" width="200" height="200"><defs><style type="text/css"></style></defs><path d="M848.88 731.36c0.81-9.36 1.23-18.84 1.23-28.41 0-179.73-145.86-325.42-325.79-325.42s-325.79 145.7-325.79 325.42c0 9.57 0.42 19.05 1.23 28.41h649.12z" fill="#FFA621" p-id="1494"></path><path d="M827.94 738.36H178.81c-3.63 0-6.66-2.78-6.97-6.39-0.83-9.6-1.26-19.36-1.26-29.02 0-56.45 14.42-112.22 41.71-161.26a6.996 6.996 0 0 1 9.52-2.71 6.996 6.996 0 0 1 2.71 9.52c-26.13 46.97-39.95 100.38-39.95 154.45 0 7.12 0.24 14.29 0.71 21.41h636.15c0.47-7.12 0.71-14.3 0.71-21.41 0-36.85-6.25-72.97-18.56-107.34-11.91-33.22-29.2-64.08-51.4-91.73a6.995 6.995 0 0 1 1.08-9.84 6.994 6.994 0 0 1 9.84 1.08c23.18 28.87 41.23 61.09 53.66 95.77 12.86 35.89 19.39 73.59 19.39 112.06 0 9.65-0.42 19.42-1.26 29.02-0.29 3.62-3.32 6.39-6.95 6.39zM244.67 512.12c-1.49 0-2.99-0.47-4.26-1.45-3.07-2.35-3.64-6.75-1.29-9.81a335.234 335.234 0 0 1 34.52-38.42 7 7 0 0 1 9.9 0.24 7 7 0 0 1-0.24 9.9 321.459 321.459 0 0 0-33.07 36.81 7.006 7.006 0 0 1-5.56 2.73zM306.51 450.64c-2.12 0-4.21-0.95-5.58-2.77-2.34-3.08-1.73-7.47 1.35-9.81 58.24-44.18 127.78-67.54 201.1-67.54 13.05 0 26.2 0.76 39.09 2.27 3.84 0.45 6.59 3.93 6.14 7.77a7.004 7.004 0 0 1-7.77 6.14 324.646 324.646 0 0 0-37.46-2.17c-70.24 0-136.86 22.37-192.64 64.69a6.996 6.996 0 0 1-4.23 1.42z" fill="#7C4924" p-id="1495"></path><path d="M129.61 732.07c2.6 42.08 30.83 75.5 64.99 75.5h646.78c34.16 0 62.39-33.43 64.99-75.5H129.61z" fill="#F8E868" p-id="1496"></path><path d="M820.43 814.58H580.74c-3.87 0-7-3.13-7-7s3.13-7 7-7h239.69c28.17 0 52.28-26.47 57.25-61.5H116.41c4.97 35.04 29.07 61.5 57.25 61.5h230.18c3.87 0 7 3.13 7 7s-3.13 7-7 7H173.65c-37.52 0-69.13-36.05-71.98-82.07l-0.46-7.43h791.65l-0.46 7.43c-2.84 46.02-34.45 82.07-71.97 82.07z" fill="#7C4924" p-id="1497"></path><path d="M529.92 814.58H461.5c-3.87 0-7-3.13-7-7s3.13-7 7-7h68.42c3.87 0 7 3.13 7 7s-3.14 7-7 7z" fill="#7C4924" p-id="1498"></path><path d="M914.46 276.35c-11.02-12.64-30.19-13.96-42.84-2.95-0.17 0.15-0.32 0.3-0.49 0.45l-1.71-1.96c1.32-0.83 2.59-1.77 3.81-2.83 12.64-11.02 13.96-30.19 2.95-42.84-11.02-12.64-30.19-13.96-42.84-2.95-12.64 11.02-13.96 30.19-2.95 42.84 2.59 2.98 5.64 5.32 8.95 7.02L677.79 413.9l25.92 29.75 158.84-138.4c1.21 3.94 3.24 7.69 6.12 10.99 11.02 12.64 30.19 13.96 42.84 2.95 12.64-11.02 13.96-30.2 2.95-42.84z" fill="#FFA621" p-id="1499"></path><path d="M681.47 450.65c-1.95 0-3.9-0.81-5.28-2.4l-25.92-29.75a7.04 7.04 0 0 1-1.71-5.08c0.13-1.85 0.99-3.58 2.38-4.8l154.84-134.91c-1.02-0.94-2-1.94-2.92-3-6.56-7.52-9.79-17.15-9.1-27.11s5.21-19.05 12.73-25.61c7.52-6.55 17.15-9.79 27.11-9.1 9.96 0.68 19.05 5.21 25.61 12.73 9.26 10.63 11.42 25.05 6.89 37.44 1.91-0.16 3.84-0.18 5.79-0.04 9.96 0.68 19.05 5.21 25.61 12.73 13.53 15.53 11.91 39.18-3.62 52.71-7.52 6.56-17.15 9.79-27.11 9.1-9.96-0.68-19.05-5.21-25.61-12.73a37.288 37.288 0 0 1-3.21-4.25L686.07 448.92a6.96 6.96 0 0 1-4.6 1.73z m-16.04-36.07l16.73 19.2 153.56-133.8a6.967 6.967 0 0 1 6.52-1.45c2.28 0.65 4.07 2.41 4.77 4.67 0.96 3.13 2.55 5.98 4.71 8.46 4.1 4.71 9.79 7.53 16.01 7.96 6.22 0.44 12.24-1.59 16.95-5.69 9.71-8.46 10.73-23.25 2.27-32.96-4.1-4.7-9.78-7.53-16.01-7.96-6.23-0.43-12.25 1.59-16.95 5.69l-0.38 0.35a7.002 7.002 0 0 1-9.98-0.59l-1.71-1.96a7.002 7.002 0 0 1 1.55-10.53c1.04-0.65 2.02-1.39 2.94-2.18 9.71-8.46 10.73-23.25 2.27-32.96-4.1-4.71-9.79-7.53-16.01-7.96-6.22-0.42-12.24 1.59-16.95 5.69-4.71 4.1-7.53 9.79-7.96 16.01-0.43 6.22 1.59 12.24 5.69 16.95 1.94 2.23 4.26 4.05 6.88 5.4a7.004 7.004 0 0 1 1.39 11.5L665.43 414.58z" fill="#7C4924" p-id="1500"></path><path d="M695.92 589.25c-58.96 51.37-143.34 51.03-188.46-0.76S473.54 453.07 532.5 401.7c58.96-51.37 176.64-80.04 221.76-28.25 45.13 51.78 0.62 164.43-58.34 215.8z" fill="#F8E868" p-id="1501"></path><path d="M574.82 634.55h-0.59c-37.64-0.15-71.13-14.88-94.29-41.47S446.76 531.3 451.76 494c4.96-36.97 24.09-71.62 53.89-97.59 9.33-8.13 20.14-15.78 32.14-22.75 66.48-38.62 159.28-50.98 199.5-4.82 22.39 25.7 26.39 66.45 11.26 114.75-13.2 42.15-40.13 84.66-70.28 110.93-29.63 25.83-66.36 40.03-103.45 40.03z m-29.99-248.79c-11.23 6.53-21.32 13.66-29.98 21.2-27.23 23.73-44.71 55.3-49.21 88.89-4.46 33.26 4.37 64.52 24.85 88.03 20.48 23.51 50.24 36.53 83.8 36.67h0.53c33.72 0 67.17-12.98 94.26-36.58 28.31-24.67 53.65-64.74 66.12-104.56 13.42-42.85 10.34-79.8-8.46-101.37-16.01-18.37-44.57-27.07-80.43-24.53-33.3 2.37-70.28 14.13-101.48 32.25z" fill="#7C4924" p-id="1502"></path><path d="M366.61 729.46c-0.46-9.15-12.23-22-18.02-27.85-15.41-15.57-37.43-25.06-59.48-23.45-14.04 1.02-27.96 5.95-41.89 3.92-15.16-2.21-28.1-12.37-43.06-15.7-18.73-4.16-39.58 3.8-50.77 19.38-7.04 9.81-13.38 30.76-7.51 43.7h220.73zM865.65 729.46c-0.46-9.15-12.23-22-18.02-27.85-15.41-15.57-37.43-25.06-59.48-23.45-14.04 1.02-27.96 5.95-41.89 3.92-15.16-2.21-28.1-12.37-43.06-15.7-18.73-4.16-39.58 3.8-50.77 19.38-7.04 9.81-13.38 30.76-7.51 43.7h220.73z" fill="#8EBD62" p-id="1503"></path><path d="M372.61 729.46c-0.85-8.98-6.19-16.46-11.76-23.26-5.91-7.21-12.63-13.73-20.27-19.1-18.8-13.22-40.71-17.09-63.12-13.48-12 1.93-23.84 4.63-35.8 1.03-10.52-3.16-19.95-9.09-30.38-12.53-19.12-6.3-40.5-1.51-55.43 11.93-14.27 12.84-23.47 38.56-15.75 56.99 1.04 2.49 2.9 4.4 5.79 4.4H366.61c7.72 0 7.73-12 0-12H145.89c1.93 1.47 3.86 2.94 5.79 4.4-5.78-13.8 0.41-33.04 10.59-43.34 12.19-12.34 30.36-16.14 46.6-10.56 9.35 3.21 17.91 8.33 27.27 11.53 9.58 3.27 19.29 3.51 29.25 2.18 10.59-1.41 21.01-4.11 31.77-3.62 9.06 0.41 18.15 2.88 26.29 6.86 9.1 4.45 16.91 10.58 23.81 17.96 4.96 5.31 12.63 12.93 13.35 20.58 0.71 7.65 12.72 7.72 12 0.03zM871.65 729.46c-0.85-8.98-6.19-16.46-11.76-23.26-5.91-7.21-12.63-13.73-20.27-19.1-18.8-13.22-40.71-17.09-63.12-13.48-12 1.93-23.84 4.63-35.8 1.03-10.52-3.16-19.95-9.09-30.38-12.53-19.12-6.31-40.5-1.51-55.43 11.93-14.27 12.84-23.47 38.56-15.75 56.99 1.04 2.49 2.9 4.4 5.79 4.4H865.65c7.72 0 7.73-12 0-12H644.93c1.93 1.47 3.86 2.94 5.79 4.4-5.78-13.8 0.41-33.04 10.59-43.34 12.19-12.34 30.36-16.14 46.6-10.56 9.35 3.21 17.91 8.33 27.27 11.53 9.58 3.27 19.29 3.51 29.25 2.18 10.59-1.41 21.01-4.11 31.77-3.62 9.06 0.41 18.15 2.88 26.29 6.86 9.1 4.45 16.91 10.58 23.81 17.96 4.96 5.31 12.63 12.93 13.35 20.58 0.72 7.65 12.73 7.72 12 0.03z" fill="#7C4924" p-id="1504"></path><path d="M243.37 615.35c3-5.99 6.01-11.98 9.01-17.97 3.45-6.88-6.9-12.97-10.36-6.06-3 5.99-6.01 11.98-9.01 17.97-3.45 6.89 6.9 12.97 10.36 6.06zM272.56 568.34c15.53-36.57 42.5-67.29 76.96-87.12 6.69-3.85 0.66-14.22-6.06-10.36-36.06 20.75-64.99 53.11-81.26 91.43-1.28 3-0.88 6.4 2.15 8.21 2.51 1.49 6.95 0.81 8.21-2.16z" fill="#FFFFFF" p-id="1505"></path></svg>